<svg width="115" height="41" viewBox="0 0 115 41" fill="none" xmlns="http://www.w3.org/2000/svg">
<path d="M110.911 28.5999C110.645 28.3106 110.376 28.102 110.11 27.9728C109.834 27.8394 109.531 27.772 109.225 27.7759C108.851 27.7759 108.54 27.8901 108.292 28.1187C108.173 28.2261 108.078 28.3583 108.014 28.5061C107.951 28.654 107.92 28.8139 107.924 28.975C107.922 29.2655 108.024 29.547 108.21 29.7694C108.398 30.0041 108.737 30.2772 109.227 30.5888C109.971 31.0649 110.493 31.5109 110.793 31.9267C111.094 32.3426 111.246 32.8269 111.248 33.3796C111.248 34.1297 110.985 34.7525 110.458 35.2481C109.93 35.7437 109.266 35.9918 108.463 35.9923C108.12 35.9969 107.778 35.968 107.44 35.9058C107.099 35.8302 106.767 35.7219 106.447 35.5826V33.8935C106.723 34.2401 107.007 34.4922 107.303 34.6536C107.601 34.8158 107.935 34.8991 108.273 34.8957C108.717 34.8957 109.086 34.7677 109.379 34.5119C109.52 34.3954 109.632 34.2486 109.709 34.0824C109.785 33.9162 109.823 33.7348 109.819 33.5519C109.824 33.2308 109.718 32.9178 109.52 32.6655C109.326 32.4119 108.977 32.1233 108.472 31.7996C107.745 31.3383 107.234 30.9097 106.939 30.5136C106.644 30.1224 106.487 29.6437 106.494 29.1531C106.494 28.4443 106.762 27.855 107.299 27.3854C107.837 26.9157 108.511 26.68 109.323 26.6784C109.615 26.6754 109.907 26.7044 110.193 26.7649C110.444 26.821 110.687 26.9126 110.913 27.0371L110.911 28.5999ZM89.7176 29.179L88.5453 31.9096H90.8957L89.7213 29.179H89.7176ZM86.6965 33.2367L89.7746 26.637L92.8581 33.2367C93.2147 33.9945 93.5062 34.5659 93.7323 34.9509C93.9576 35.3347 94.1794 35.6382 94.3984 35.8565H92.1654C92.2126 35.6753 92.1911 35.3938 92.1009 35.0119C91.996 34.5835 91.8545 34.1649 91.6779 33.7609L91.384 33.064H88.0511L88.0095 33.1961C87.7879 33.7047 87.6109 34.2316 87.4804 34.7711C87.3588 35.2866 87.3234 35.6491 87.3763 35.8556H85.122C85.3972 35.5702 85.6368 35.2522 85.8356 34.9086C86.0654 34.5245 86.3524 33.9672 86.6965 33.2367ZM71.4308 33.2367V29.4349C71.4351 28.9589 71.4123 28.483 71.3626 28.0096C71.3123 27.6058 71.2296 27.2067 71.1153 26.8163H73.1073C72.9961 27.2024 72.9154 27.5966 72.8658 27.9954C72.8158 28.4735 72.793 28.9541 72.7976 29.4349V33.2367C72.7932 33.7141 72.816 34.1913 72.8658 34.6661C72.9163 35.0685 72.999 35.4662 73.1131 35.8552H71.1211C71.2331 35.4699 71.3138 35.0762 71.3626 34.6778C71.4122 34.1991 71.4345 33.7179 71.4292 33.2367H71.4308ZM54.0837 34.8965C54.9305 34.8965 55.6341 34.5861 56.1948 33.9654C56.7554 33.3447 57.0358 32.5669 57.0361 31.632C57.0361 30.5257 56.7289 29.6059 56.1144 28.8725C55.5 28.1392 54.7276 27.7729 53.7973 27.7738C52.9547 27.7738 52.253 28.0841 51.6921 28.7049C51.1312 29.3256 50.8509 30.1047 50.8511 31.0421C50.8511 32.1467 51.1582 33.0648 51.7724 33.7965C52.3866 34.5282 53.157 34.8948 54.0837 34.8965V34.8965ZM53.7973 35.9932C52.5251 35.9932 51.4684 35.5443 50.6272 34.6465C49.786 33.7487 49.3654 32.6212 49.3654 31.2641C49.3654 29.9487 49.8142 28.856 50.7117 27.9857C51.6092 27.1155 52.7339 26.6797 54.0858 26.6784C55.3624 26.6784 56.4211 27.128 57.2617 28.0271C58.1024 28.9263 58.5238 30.0552 58.526 31.4137C58.526 32.7238 58.0771 33.8145 57.1793 34.6858C56.2815 35.5571 55.1541 35.9929 53.7973 35.9932V35.9932ZM35.0914 27.7984C34.7861 27.8062 34.5162 27.8234 34.2816 27.8499C33.9111 27.8949 33.5434 27.9605 33.1801 28.0464L33.6268 26.818H36.7557C36.6725 27.041 36.6018 27.3908 36.5438 27.8674C36.4872 28.3384 36.4584 28.8124 36.4576 29.2869V34.2204C36.4576 35.4329 36.212 36.3438 35.7208 36.9531C35.2296 37.5624 34.499 37.8668 33.529 37.8663C33.3174 37.8667 33.107 37.8356 32.9045 37.7739L32.9104 37.768C33.3829 37.5913 33.8036 37.2981 34.1339 36.9155C34.7722 36.1735 35.0914 35.1018 35.0914 33.7003V27.7968V27.7984Z" fill="black"/>
<path d="M33.5872 15.7176V8.87263C33.5872 7.8492 33.5438 6.99592 33.4591 6.29237C33.367 5.56378 33.2172 4.84365 33.0112 4.13875H36.8497C38.7902 4.13875 40.2616 4.54369 41.2208 5.33274C42.1804 6.14306 42.6708 7.33706 42.6708 8.95769C42.6708 10.6851 42.1166 11.9433 40.9864 12.7337C39.92 13.4798 38.2781 13.8851 36.0607 13.9277V15.7189C36.0607 16.7423 36.1041 17.6169 36.1909 18.2991C36.2827 19.0277 36.4323 19.7479 36.6384 20.4528H33.036C33.2373 19.7551 33.38 19.0418 33.4626 18.3204C33.5442 17.6368 33.5872 16.7623 33.5872 15.7176ZM36.0611 12.6894C37.4066 12.6681 38.3853 12.3912 39.025 11.8578C39.6648 11.3037 39.9847 10.4295 39.9847 9.23503C39.9847 8.06317 39.6861 7.16649 39.1101 6.59097C38.5129 6.01503 37.6383 5.71815 36.4656 5.71815H36.0607L36.0611 12.6894ZM45.6651 15.7176V8.87263C45.6651 7.8492 45.6217 6.99592 45.5375 6.29237C45.4454 5.56378 45.2956 4.84365 45.0896 4.13875H48.1391C50.2072 4.13875 51.8065 4.56496 52.9367 5.39741C54.0652 6.25026 54.6212 7.44426 54.6212 8.97983C54.6212 10.3657 54.0031 11.4972 52.7449 12.3487C52.3612 12.6048 51.9133 12.8179 51.4654 13.031L52.6373 14.8009C53.1919 15.6112 53.8091 16.4428 54.4927 17.2749C55.1763 18.1069 56.1133 19.1516 57.2861 20.4523H54.3647C53.5331 19.7488 52.5522 18.7249 51.422 17.4029C50.3131 16.0809 49.3535 14.8226 48.5644 13.6074L48.1382 12.9464V15.7397C48.1382 16.7631 48.1816 17.6164 48.2658 18.32C48.3602 19.0412 48.5099 19.7541 48.7137 20.4523H45.1113C45.3126 19.7546 45.4553 19.0414 45.538 18.32C45.6222 17.6368 45.6647 16.7623 45.6647 15.7176H45.6651ZM48.1391 12.3483C49.2241 12.2845 50.1008 11.9646 50.7619 11.4099C51.5509 10.7706 51.9337 9.93858 51.9337 8.89259C51.9337 7.93297 51.5713 7.16518 50.8248 6.58967C50.1429 6.05799 49.2493 5.76156 48.1386 5.71815L48.1391 12.3483ZM66.6536 20.7075C64.3506 20.7075 62.4314 19.8972 60.9171 18.277C59.382 16.6564 58.6142 14.6091 58.6142 12.1573C58.6142 9.79058 59.4245 7.8071 61.0664 6.2507C62.687 4.6726 64.7343 3.88354 67.1861 3.88354C69.489 3.88354 71.4081 4.69372 72.9434 6.31407C74.4577 7.9347 75.2251 9.98198 75.2251 12.4338C75.2251 14.8005 74.4147 16.7623 72.7945 18.3404C71.1522 19.9185 69.1052 20.7075 66.6536 20.7075ZM67.1865 18.7241C68.7217 18.7241 70.0012 18.1698 71.0033 17.0396C72.0272 15.9112 72.5389 14.5223 72.5389 12.8175C72.5389 10.8344 71.9842 9.17167 70.8757 7.8492C69.7455 6.52717 68.3382 5.86601 66.6536 5.86572C65.118 5.86572 63.8602 6.4204 62.8342 7.5506C61.8108 8.65938 61.299 10.0668 61.299 11.7728C61.299 13.7558 61.8533 15.4185 62.9835 16.741C64.0928 18.063 65.5012 18.7241 67.1857 18.7241H67.1865ZM78.8057 8.87176C78.4221 7.82663 78.038 6.97378 77.6339 6.27023C77.2498 5.58795 76.7381 4.8627 76.1413 4.13788H80.7684C80.6382 4.54282 80.5978 5.0975 80.6816 5.77979C80.7458 6.48334 80.9164 7.18732 81.172 7.91213L84.0934 16.2922L87.2922 7.91213C87.5765 7.23841 87.7631 6.52754 87.8464 5.80105C87.9532 5.07624 87.9532 4.52156 87.8252 4.13788H91.9623C91.6424 4.50029 91.3012 5.03327 90.9601 5.73725C90.5973 6.41953 90.1281 7.46437 89.5526 8.87176L84.9463 20.4515H82.9628L78.8057 8.87176ZM94.7252 15.7167V8.87263C94.7252 7.8492 94.6818 6.99592 94.595 6.29237C94.5033 5.56375 94.3536 4.84361 94.1476 4.13875H97.7499C97.5484 4.83638 97.4057 5.54965 97.3233 6.2711C97.2365 6.95338 97.1953 7.8275 97.1953 8.87263V15.7176C97.1953 16.741 97.2387 17.6156 97.3233 18.2978C97.416 19.0265 97.5664 19.7466 97.7729 20.4515H94.1706C94.3719 19.7538 94.5145 19.0405 94.5968 18.3191C94.6818 17.6368 94.7244 16.7623 94.7244 15.7176L94.7252 15.7167ZM103.164 15.7167C103.164 16.7401 103.208 17.6147 103.295 18.297C103.386 19.0256 103.536 19.7457 103.742 20.4506H100.416C100.617 19.753 100.76 19.0397 100.842 18.3182C100.929 17.636 100.972 16.7614 100.972 15.7167V6.54844C100.61 6.05799 100.29 5.65262 100.034 5.35401C99.4582 4.65032 99.0744 4.24523 98.8823 4.13875H102.785C103.232 4.94907 103.659 5.67389 104.064 6.29237C104.491 6.93211 104.981 7.6144 105.578 8.40345L111.785 16.4637V8.85136C111.785 7.8492 111.742 6.97465 111.655 6.29063C111.563 5.56204 111.413 4.84191 111.207 4.13701H114.534C114.332 4.83459 114.189 5.54788 114.107 6.26936C114.02 6.97291 113.979 7.82577 113.979 8.87089V16.5279C113.985 17.3113 114.035 18.0938 114.128 18.8716C114.235 19.6181 114.363 20.1511 114.512 20.4497H111.186C111.164 20.2154 110.951 19.7887 110.588 19.1911C110.195 18.5501 109.768 17.9309 109.309 17.3361L103.163 9.29927L103.164 15.7167Z" fill="black"/>
<path fill-rule="evenodd" clip-rule="evenodd" d="M27.6816 2.99372V28.528C27.3347 32.8982 23.607 35.89 19.9303 35.7738C15.7271 35.6415 12.3727 34.068 9.40137 31.4036C15.2265 33.6654 20.3947 30.0515 20.3947 25.1927V0L27.6816 2.99372Z" fill="black"/>
<path fill-rule="evenodd" clip-rule="evenodd" d="M0 38.0057V12.4718C0.346873 8.10232 4.07398 5.11057 7.75134 5.22613C11.9545 5.35903 15.3089 6.93259 18.2803 9.59691C12.4551 7.33448 7.28626 10.9483 7.28626 15.8077V41L0 38.0057Z" fill="black"/>
<path d="M112.948 24.5702V23.0852H113.45C113.566 23.0852 113.661 23.105 113.735 23.1447C113.81 23.1838 113.865 23.2377 113.901 23.3064C113.936 23.375 113.954 23.4531 113.954 23.5406C113.954 23.628 113.936 23.7056 113.901 23.7733C113.865 23.841 113.81 23.8941 113.736 23.9328C113.662 23.971 113.567 23.9901 113.452 23.9901H113.046V23.8277H113.447C113.526 23.8277 113.59 23.8161 113.638 23.7929C113.687 23.7697 113.722 23.7368 113.744 23.6943C113.766 23.6512 113.777 23.6 113.777 23.5406C113.777 23.4811 113.766 23.4291 113.744 23.3847C113.722 23.3402 113.686 23.3059 113.637 23.2817C113.588 23.257 113.524 23.2447 113.444 23.2447H113.128V24.5702H112.948ZM113.647 23.9031L114.012 24.5702H113.803L113.444 23.9031H113.647Z" fill="black"/>
<path d="M113.425 24.9699C114.046 24.9699 114.55 24.4662 114.55 23.8448C114.55 23.2234 114.046 22.7197 113.425 22.7197C112.804 22.7197 112.3 23.2234 112.3 23.8448C112.3 24.4662 112.804 24.9699 113.425 24.9699Z" fill="black"/>
</svg>
